HIERARCHY
ROOT Hips
{
	OFFSET 0.00000 0.00000 0.00000
	CHANNELS 6 Xposition Yposition Zposition Zrotation Yrotation Xrotation 
	JOINT LHipJoint
	{
		OFFSET 0 0 0
		CHANNELS 3 Zrotation Yrotation Xrotation
		JOINT LeftHip
		{
			OFFSET 2.36090 -1.39315 1.24752
			CHANNELS 3 Zrotation Yrotation Xrotation
			JOINT LeftKnee
			{
				OFFSET 2.06810 -5.68207 0.00000
				CHANNELS 3 Zrotation Yrotation Xrotation
				JOINT LeftAnkle
				{
					OFFSET 2.46631 -6.77613 0.00000
					CHANNELS 3 Zrotation Yrotation Xrotation
					JOINT LeftToe
					{
						OFFSET 0.26031 -0.71520 1.99545
						CHANNELS 3 Zrotation Yrotation Xrotation
						End Site
						{
							OFFSET 0.00000 -0.00000 1.05957
						}
					}
				}
			}
		}
	}
	JOINT RHipJoint
	{
		OFFSET 0 0 0
		CHANNELS 3 Zrotation Yrotation Xrotation
		JOINT RightHip
		{
			OFFSET -2.25243 -1.39315 1.24752
			CHANNELS 3 Zrotation Yrotation Xrotation
			JOINT RightKnee
			{
				OFFSET -2.17343 -5.97145 0.00000
				CHANNELS 3 Zrotation Yrotation Xrotation
				JOINT RightAnkle
				{
					OFFSET -2.52372 -6.93386 0.00000
					CHANNELS 3 Zrotation Yrotation Xrotation
					JOINT RightToe
					{
						OFFSET -0.22538 -0.61923 2.11447
						CHANNELS 3 Zrotation Yrotation Xrotation
						End Site
						{
							OFFSET -0.00000 -0.00000 1.10506
						}
					}
				}
			}
		}
	}
	JOINT lowerback
	{
		OFFSET 0 0 0
		CHANNELS 3 Zrotation Yrotation Xrotation
		JOINT Chest
		{
			OFFSET 0.01594 2.13103 0.08007
			CHANNELS 3 Zrotation Yrotation Xrotation
			JOINT Chest2
			{
				OFFSET 0.01393 2.09723 0.18338
				CHANNELS 3 Zrotation Yrotation Xrotation
				JOINT lowerneck
				{
					OFFSET 0 0 0
					CHANNELS 3 Zrotation Yrotation Xrotation
					JOINT Neck
					{
						OFFSET 0.05351 1.38915 0.32494
						CHANNELS 3 Zrotation Yrotation Xrotation
						JOINT Head
						{
							OFFSET 0.00711 1.45992 -0.21666
							CHANNELS 3 Zrotation Yrotation Xrotation
							End Site
							{
								OFFSET -0.00433 1.47702 -0.11056
							}
						}
					}
				}
				JOINT LeftCollar
				{
					OFFSET 0 0 0
					CHANNELS 3 Zrotation Yrotation Xrotation
					JOINT LeftShoulder
					{
						OFFSET 2.87198 0.92249 0.11132
CHANNELS 3 Zrotation Xrotation Yrotation
						JOINT LeftElbow
						{
OFFSET 0 -5.527310 0.000000
CHANNELS 3 Zrotation Xrotation Yrotation
							JOINT LeftWrist
							{
OFFSET 0 -3.110590 0.000000
CHANNELS 3 Zrotation Xrotation Yrotation
								JOINT lhand
								{
									OFFSET 0 0 0
CHANNELS 3 Zrotation Xrotation Yrotation
									JOINT LFingers
									{
OFFSET 0 -0.419630 0.000000
CHANNELS 3 Zrotation Xrotation Yrotation
										End Site
										{
OFFSET 0 -0.338310 0.000000
										}
									}
								}
								JOINT LThumb
								{
OFFSET 0 0.000000 0.000000
CHANNELS 3 Zrotation Xrotation Yrotation
									End Site
									{
OFFSET 0 -0.343480 0.343480
									}
								}
							}
						}
					}
				}
				JOINT RightCollar
				{
					OFFSET 0 0 0
					CHANNELS 3 Zrotation Yrotation Xrotation
					JOINT RightShoulder
					{
						OFFSET -2.94710 0.68072 0.32187
CHANNELS 3 Zrotation Xrotation Yrotation
						JOINT RightElbow
						{
OFFSET 0 -5.253960 -0.000000
CHANNELS 3 Zrotation Xrotation Yrotation
							JOINT RightWrist
							{
OFFSET 0 -3.105670 0.000000
CHANNELS 3 Zrotation Xrotation Yrotation
								JOINT rhand
								{
									OFFSET 0 0 0
CHANNELS 3 Zrotation Xrotation Yrotation
									JOINT RFingers
									{
OFFSET 0 -0.498680 0.000000
CHANNELS 3 Zrotation Xrotation Yrotation
										End Site
										{
OFFSET 0 -0.402040 0.000000
										}
									}
								}
								JOINT RThumb
								{
OFFSET 0 0.000000 0.000000
CHANNELS 3 Zrotation Xrotation Yrotation
									End Site
									{
OFFSET 0 -0.408180 0.408180
									}
								}
							}
						}
					}
				}
			}
		}
	}
}
MOTION
Frames: 5
Frame Time: 0.008333333333333333
6.901200 15.712000 25.074700 -28.703200 -87.804800 45.305800 0.000000 0.000000 0.000000 0.000000 0.000000 0.000000 0.000000 0.000000 0.000000 0.000000 0.000000 0.000000 0.000000 0.000000 0.000000 0.000000 0.000000 0.000000 13.890000 28.535600 -13.924500 -1.936500 -8.732600 24.962500 -0.024600 -15.131000 -21.735400 -0.471900 4.405900 -12.221500 1.938700 1.732900 -25.073600 1.319100 1.123500 -6.521000 0.643300 0.334900 6.729800 8.073200 7.941700 -14.480100 -11.834900 11.592300 19.037600 -3.904400 4.716900 9.599600 0.000000 0.000000 0.000000 46.864100 2.069100 10.717600 153.721900 -37.482000 110.943600 16.248600 -33.810200 20.760100 0.000000 0.000000 0.000000 -7.125000 0.000000 0.000000 -7.845200 8.597100 -6.648600 0.000000 0.000000 0.000000 -34.768100 3.446300 -11.288700 -163.300000 -26.460600 -116.047300 -38.539300 10.978900 14.044100 0.000000 0.000000 0.000000 7.125000 0.000000 -0.000000 -10.723900 47.423400 0.648400
6.890301 15.711424 25.073601 -27.879435 -87.777221 44.525244 0.000000 0.000000 0.000000 0.000000 0.000000 0.000000 0.000000 0.000000 0.000000 0.000000 0.000000 0.000000 0.000000 0.000000 0.000000 0.000000 0.000000 0.000000 13.888436 28.569444 -13.903444 -1.938601 -8.736902 24.975782 -0.024091 -15.188827 -21.809862 -0.467663 4.385835 -12.164809 1.845211 1.683784 -25.168029 1.370413 1.070809 -6.568682 0.738006 0.305910 6.721521 8.191468 7.975104 -14.537627 -12.069338 11.654721 18.962772 -3.994144 4.729367 9.615730 0.000000 0.000000 0.000000 47.791311 1.901761 12.162892 153.786755 -37.418495 110.983068 17.131373 -34.347884 21.448185 0.000000 0.000000 0.000000 -7.125000 0.000000 0.000000 -7.320766 7.781296 -6.314971 0.000000 0.000000 0.000000 -36.150647 2.508878 -13.233973 -163.311235 -26.445669 -116.052244 -38.450101 11.538113 14.378894 0.000000 0.000000 0.000000 7.125000 0.000000 0.000000 -10.653744 47.815824 0.747804
6.879647 15.711256 25.073794 -27.179611 -87.747264 43.868703 0.000000 0.000000 0.000000 0.000000 0.000000 0.000000 0.000000 0.000000 0.000000 0.000000 0.000000 0.000000 0.000000 0.000000 0.000000 0.000000 0.000000 0.000000 13.881719 28.565931 -13.893760 -1.938201 -8.736152 24.973406 -0.031838 -15.190786 -21.891463 -0.451622 4.311282 -11.954012 1.793769 1.649228 -25.254404 1.384175 1.031683 -6.598432 0.771790 0.284792 6.730752 8.058054 8.004616 -14.513448 -11.974816 11.686857 18.746914 -3.931823 4.753564 9.524576 0.000000 0.000000 0.000000 48.764241 1.782434 13.803033 153.767634 -37.437219 110.971482 17.840735 -34.641174 22.059083 0.000000 0.000000 0.000000 -7.125000 0.000000 0.000000 -6.911822 7.058512 -6.053524 0.000000 0.000000 0.000000 -37.378578 1.611307 -15.018487 -163.322659 -26.430471 -116.057359 -38.367622 12.287152 14.944283 0.000000 0.000000 0.000000 7.125000 0.000000 0.000000 -10.600995 48.488904 0.922485
6.869522 15.710255 25.074300 -26.348213 -87.704239 43.072954 0.000000 0.000000 0.000000 0.000000 0.000000 0.000000 0.000000 0.000000 0.000000 0.000000 0.000000 0.000000 0.000000 0.000000 0.000000 0.000000 0.000000 0.000000 13.888477 28.590681 -13.855957 -1.937285 -8.734147 24.967192 -0.021383 -15.295147 -21.929539 -0.457140 4.337392 -12.027815 1.759410 1.608745 -25.326206 1.385410 0.983036 -6.620755 0.778974 0.259677 6.741424 7.914733 8.051585 -14.491613 -11.849286 11.735549 18.492469 -3.854535 4.789565 9.419804 0.000000 0.000000 0.000000 49.776452 1.741770 15.468609 153.718938 -37.484921 110.941866 18.591189 -34.840090 23.116305 0.000000 0.000000 0.000000 -7.125000 0.000000 0.000000 -6.517116 5.865785 -5.854771 0.000000 0.000000 0.000000 -38.615579 0.712789 -16.722374 -163.336504 -26.411995 -116.063568 -38.421852 13.142929 15.645676 0.000000 0.000000 0.000000 7.125000 0.000000 0.000000 -10.690194 49.349913 1.158650
6.859691 15.709507 25.074399 -25.650134 -87.659528 42.408725 0.000000 0.000000 0.000000 0.000000 0.000000 0.000000 0.000000 0.000000 0.000000 0.000000 0.000000 0.000000 0.000000 0.000000 0.000000 0.000000 0.000000 0.000000 13.899981 28.605862 -13.820142 -1.935715 -8.730832 24.956799 -0.015755 -15.370781 -21.977262 -0.455909 4.331644 -12.011526 1.725106 1.576693 -25.383693 1.387292 0.945741 -6.649034 0.789915 0.239980 6.738346 7.656965 8.084800 -14.409939 -11.621883 11.766332 18.188937 -3.727957 4.823975 9.270764 0.000000 0.000000 0.000000 50.790290 1.728321 17.145733 153.624266 -37.577357 110.884189 19.239066 -35.041498 24.419138 0.000000 0.000000 0.000000 -7.125000 0.000000 0.000000 -6.223159 4.427355 -5.758869 0.000000 0.000000 0.000000 -39.874197 -0.138585 -18.399825 -163.344233 -26.401788 -116.066971 -38.436032 14.013817 16.453755 0.000000 0.000000 0.000000 7.125000 0.000000 0.000000 -10.740683 50.330280 1.425405
